<svg width="515" height="739" viewBox="0 0 515 739" fill="none" xmlns="http://www.w3.org/2000/svg">
<path fill-rule="evenodd" clip-rule="evenodd" d="M64.5131 289.156L-63.1838 364.918C-78.6569 374.098 -97.4559 359.833 -92.7803 342.46L-54.1933 199.081C-50.4936 185.334 -34.0477 179.713 -22.7071 188.318L66.4028 255.935C77.7434 264.54 76.7564 281.892 64.5131 289.156ZM-62.8048 365.556C-78.851 375.076 -98.3463 360.283 -93.4975 342.267L-54.9105 198.888C-51.0738 184.632 -34.0188 178.802 -22.2581 187.726L66.8517 255.343C78.6124 264.267 77.5889 282.262 64.8921 289.795L-62.8048 365.556Z" fill="#23B9D9" fill-opacity="0.15"/>
<path fill-rule="evenodd" clip-rule="evenodd" d="M250.604 301.24L1.33587 449.39C-14.143 458.59 -32.963 444.309 -28.27 426.925L47.305 146.976C51.0135 133.239 67.4518 127.627 78.7871 136.228L252.48 268.027C263.815 276.628 262.836 293.97 250.604 301.24ZM1.71533 450.029C-14.3369 459.569 -33.8539 444.76 -28.987 426.732L46.5879 146.783C50.4339 132.537 67.4809 126.716 79.2361 135.636L252.929 267.435C264.684 276.355 263.668 294.339 250.983 301.879L1.71533 450.029Z" fill="#23B9D9" fill-opacity="0.15"/>
<path fill-rule="evenodd" clip-rule="evenodd" d="M406.834 322.978L22.6066 551.34C7.1277 560.54 -11.6923 546.259 -6.99926 528.875L109.494 97.3554C113.202 83.6179 129.641 78.0057 140.976 86.607L408.71 289.765C420.046 298.366 419.066 315.708 406.834 322.978ZM22.9861 551.979C6.93388 561.519 -12.5831 546.71 -7.71632 528.682L108.777 97.1619C112.623 82.9155 129.67 77.0955 141.425 86.0154L409.159 289.173C420.914 298.093 419.898 316.077 407.213 323.617L22.9861 551.979Z" fill="#23B9D9" fill-opacity="0.15"/>
<path fill-rule="evenodd" clip-rule="evenodd" d="M153.303 287.093L-27.991 394.654C-43.464 403.834 -62.2631 389.569 -57.5875 372.196L-2.80461 168.638C0.895038 154.892 17.3409 149.27 28.6816 157.875L155.193 253.872C166.533 262.477 165.546 279.83 153.303 287.093ZM-27.612 395.292C-43.6581 404.812 -63.1535 390.019 -58.3047 372.003L-3.52181 168.445C0.314871 154.189 17.3698 148.359 29.1305 157.283L155.642 253.28C167.402 262.204 166.379 280.199 153.682 287.732L-27.612 395.292Z" fill="#23B9D9" fill-opacity="0.15"/>
</svg>
