<svg width="80" height="80" viewBox="0 0 80 80" fill="none" xmlns="http://www.w3.org/2000/svg">
<rect width="80" height="80" rx="40" fill="#23B9D9"/>
<path fill-rule="evenodd" clip-rule="evenodd" d="M36.9591 25.2814C32.6218 22.8402 28.7792 23.9881 25.5853 27.8657C22.5028 31.6083 24.6044 38.3544 26.1153 43.2039C26.4755 44.3602 26.8022 45.4087 27.0169 46.2829C28.1324 50.8237 29.1996 53.6532 31.6331 55.701C32.8383 56.715 34.2048 54.9724 35.6465 53.1338C36.8965 51.5398 38.203 49.8737 39.5098 49.8697C40.7954 49.8658 42.0812 51.5293 43.3138 53.1239C44.7366 54.9646 46.0886 56.7135 47.2874 55.701C49.1461 54.1311 49.9903 52.9793 51.0116 49.745C52.1254 46.2179 53.9238 42 55.3536 37.138C56.3596 33.7171 56.4801 30.2345 53.5808 26.8727C49.4414 22.0732 43.704 24.5522 41.0332 26.1396L44.6508 29.2408C45.0701 29.6002 45.1187 30.2315 44.7592 30.6508C44.3998 31.0701 43.7685 31.1187 43.3492 30.7592L36.9591 25.2814Z" fill="white"/>
</svg>
