<svg width="80" height="80" viewBox="0 0 80 80" fill="none" xmlns="http://www.w3.org/2000/svg">
<rect width="80" height="80" rx="40" fill="#23B9D9"/>
<path fill-rule="evenodd" clip-rule="evenodd" d="M42.1849 52.6489C41.5568 52.2385 40.8063 52 40 52C37.7909 52 36 53.7909 36 56C36 58.2091 37.7909 60 40 60C42.1991 60 43.9836 58.2254 43.9999 56.0302L44.2234 52.0122H45.7765L46.0001 56.0302C46.0163 58.2254 47.8009 60 50 60C52.2091 60 54 58.2091 54 56C54 53.7909 52.2091 52 50 52C49.1937 52 48.4432 52.2385 47.8151 52.6489L45.9985 20L45 20.0556L44.0015 20L42.1849 52.6489ZM45.6653 50.0122L45 38.0558L44.3347 50.0122H45.6653ZM46 34.0362C46 34.5877 45.5523 35.0348 45 35.0348C44.4477 35.0348 44 34.5877 44 34.0362C44 33.4847 44.4477 33.0376 45 33.0376C45.5523 33.0376 46 33.4847 46 34.0362ZM38 56C38 54.8954 38.8954 54 40 54C41.1046 54 42 54.8954 42 56C42 57.1046 41.1046 58 40 58C38.8954 58 38 57.1046 38 56ZM50 54C48.8954 54 48 54.8954 48 56C48 57.1046 48.8954 58 50 58C51.1046 58 52 57.1046 52 56C52 54.8954 51.1046 54 50 54Z" fill="white"/>
<path d="M30.9993 31V20C30.9993 20 27.5213 22.2607 27.0516 30.998C26.9923 32.101 27.8947 33 28.9993 33C30.1039 33 30.9993 32.1046 30.9993 31Z" fill="white"/>
<path d="M28 36.5C28 35.6716 28.6716 35 29.5 35C30.3284 35 31 35.6716 31 36.5V36.5858L28 39.5858V36.5Z" fill="white"/>
<path d="M28 42.4141V44.0857L31 41.0857V39.4141L28 42.4141Z" fill="white"/>
<path d="M28 48.5857V46.9141L31 43.9141V45.5857L28 48.5857Z" fill="white"/>
<path d="M28 51.4141V58.4999C28 59.3283 28.6716 59.9999 29.5 59.9999C30.3284 59.9999 31 59.3283 31 58.4999V48.4141L28 51.4141Z" fill="white"/>
</svg>
