<svg width="81" height="80" viewBox="0 0 81 80" fill="none" xmlns="http://www.w3.org/2000/svg">
<rect x="0.664062" width="80" height="80" rx="40" fill="#23B9D9"/>
<path fill-rule="evenodd" clip-rule="evenodd" d="M40.6641 56C49.5007 56 56.6641 48.8366 56.6641 40C56.6641 31.1634 49.5007 24 40.6641 24C31.8275 24 24.6641 31.1634 24.6641 40C24.6641 48.8366 31.8275 56 40.6641 56ZM40.6641 58C50.6052 58 58.6641 49.9411 58.6641 40C58.6641 30.0589 50.6052 22 40.6641 22C30.723 22 22.6641 30.0589 22.6641 40C22.6641 49.9411 30.723 58 40.6641 58Z" fill="white"/>
<path fill-rule="evenodd" clip-rule="evenodd" d="M30.6641 47.5C30.6641 45.0147 32.6788 43 35.1641 43H46.1641C48.6494 43 50.6641 45.0147 50.6641 47.5C50.6641 49.9853 48.6494 52 46.1641 52H35.1641C32.6788 52 30.6641 49.9853 30.6641 47.5ZM33.6641 49C33.6641 48.4477 34.1118 48 34.6641 48H46.6641C47.2164 48 47.6641 48.4477 47.6641 49C47.6641 49.5523 47.2164 50 46.6641 50H34.6641C34.1118 50 33.6641 49.5523 33.6641 49ZM34.6641 45C34.1118 45 33.6641 45.4477 33.6641 46C33.6641 46.5523 34.1118 47 34.6641 47H46.6641C47.2164 47 47.6641 46.5523 47.6641 46C47.6641 45.4477 47.2164 45 46.6641 45H34.6641Z" fill="white"/>
<path fill-rule="evenodd" clip-rule="evenodd" d="M34.1641 41C35.5448 41 36.6641 39.2091 36.6641 37C36.6641 34.7909 35.5448 33 34.1641 33C32.7834 33 31.6641 34.7909 31.6641 37C31.6641 39.2091 32.7834 41 34.1641 41ZM47.1641 41C48.5448 41 49.6641 39.2091 49.6641 37C49.6641 34.7909 48.5448 33 47.1641 33C45.7834 33 44.6641 34.7909 44.6641 37C44.6641 39.2091 45.7834 41 47.1641 41Z" fill="white"/>
</svg>
