<svg width="81" height="80" viewBox="0 0 81 80" fill="none" xmlns="http://www.w3.org/2000/svg">
<rect x="0.666016" width="80" height="80" rx="40" fill="#23B9D9"/>
<path fill-rule="evenodd" clip-rule="evenodd" d="M37.6251 25.2814C33.2878 22.8402 29.4452 23.9881 26.2514 27.8657C23.1688 31.6083 25.2705 38.3544 26.7813 43.2039C27.1415 44.3602 27.4682 45.4087 27.6829 46.2829C28.7984 50.8237 29.8656 53.6532 32.2991 55.701C33.5043 56.715 34.8708 54.9724 36.3125 53.1338C37.5625 51.5398 38.869 49.8737 40.1758 49.8697C41.4614 49.8658 42.7472 51.5293 43.9798 53.1239C45.4026 54.9646 46.7546 56.7135 47.9534 55.701C49.8121 54.1311 50.6563 52.9793 51.6776 49.745C55.1222 48.8529 57.666 45.7235 57.666 42C57.666 40.1711 57.0523 38.4856 56.0196 37.138C57.0256 33.7171 57.1461 30.2345 54.2468 26.8727C50.1074 22.0732 44.37 24.5522 41.6992 26.1396L45.3168 29.2408C45.7361 29.6002 45.7847 30.2315 45.4252 30.6508C45.0658 31.0701 44.4345 31.1187 44.0152 30.7592L37.6251 25.2814ZM55.666 42C55.666 45.3137 52.9797 48 49.666 48C46.3523 48 43.666 45.3137 43.666 42C43.666 38.6863 46.3523 36 49.666 36C52.9797 36 55.666 38.6863 55.666 42ZM48.666 39C48.666 38.4477 49.1137 38 49.666 38C50.2183 38 50.666 38.4477 50.666 39V41H52.666C53.2183 41 53.666 41.4477 53.666 42C53.666 42.5523 53.2183 43 52.666 43H50.666V45C50.666 45.5523 50.2183 46 49.666 46C49.1137 46 48.666 45.5523 48.666 45V43H46.666C46.1137 43 45.666 42.5523 45.666 42C45.666 41.4477 46.1137 41 46.666 41H48.666V39Z" fill="white"/>
</svg>
