<svg width="81" height="80" viewBox="0 0 81 80" fill="none" xmlns="http://www.w3.org/2000/svg">
<rect x="0.333984" width="80" height="80" rx="40" fill="#23B9D9"/>
<path d="M55.9116 25.1337C51.3025 20.2778 44.9319 22.4587 41.7722 24.0285L47.858 28.4591C48.3045 28.7842 48.4029 29.4096 48.0779 29.8561C47.7528 30.3026 47.1273 30.4011 46.6809 30.076L39.8641 25.1133C39.8442 25.1267 39.834 25.1337 39.834 25.1337C33.6545 20.3239 28.2857 21.3527 23.9237 26.1647C21.2094 29.159 22.5064 33.2031 23.8736 37.466C24.7036 40.0539 25.5594 42.7224 25.5594 45.2857C25.7717 45.7555 27.9154 46.134 30.9422 46.3906C30.8364 46.7196 30.8145 47.0822 30.8993 47.4497L30.9294 47.58L33.7103 46.5789C35.4159 46.6704 37.265 46.7298 39.1302 46.7534L31.3823 49.5426L31.7817 51.2732L44.4324 46.7189C49.4432 46.5819 53.6125 46.1321 54.0941 45.2857C54.0941 43.072 55.1086 40.7492 56.1451 38.3761C58.0516 34.0109 60.0325 29.4753 55.9116 25.1337Z" fill="white"/>
<path d="M49.4292 48.9198L32.6337 54.9662L32.2344 53.2356L49.8185 46.9053C49.8266 47.0831 49.8109 47.2657 49.7685 47.4495L49.4292 48.9198Z" fill="white"/>
<path d="M33.3477 56.8353L48.895 51.2383L48.4233 53.2824L35.3744 57.98C34.5605 57.8858 33.8342 57.4638 33.3477 56.8353Z" fill="white"/>
<path d="M41.2227 57.9999H44.9473C46.3442 57.9999 47.5563 57.0357 47.8704 55.6745L47.8875 55.6006L41.2227 57.9999Z" fill="white"/>
<path fill-rule="evenodd" clip-rule="evenodd" d="M48.5 38.75C44.7721 38.75 41.75 41.7721 41.75 45.5C41.75 49.2279 44.7721 52.25 48.5 52.25C50.3642 52.25 52.0506 51.4953 53.273 50.273C54.4953 49.0506 55.25 47.3642 55.25 45.5C55.25 41.7721 52.2279 38.75 48.5 38.75ZM40.25 45.5C40.25 40.9437 43.9437 37.25 48.5 37.25C53.0563 37.25 56.75 40.9437 56.75 45.5C56.75 47.5078 56.032 49.3491 54.8399 50.7793L59.5303 55.4697C59.8232 55.7626 59.8232 56.2374 59.5303 56.5303C59.2374 56.8232 58.7626 56.8232 58.4697 56.5303L53.7793 51.8399C52.3491 53.032 50.5078 53.75 48.5 53.75C43.9437 53.75 40.25 50.0563 40.25 45.5Z" fill="white" stroke="#23B9D9" stroke-linecap="round" stroke-linejoin="round"/>
</svg>
