<svg width="81" height="80" viewBox="0 0 81 80" fill="none" xmlns="http://www.w3.org/2000/svg">
<rect x="0.666016" width="80" height="80" rx="40" fill="#23B9D9"/>
<path fill-rule="evenodd" clip-rule="evenodd" d="M20.666 40C23.666 34.5453 31.866 26.2545 40.666 30.1818C49.666 25.8182 57.666 34.5454 60.666 40C57.666 44.3636 49.466 52 40.666 52C31.866 52 23.666 44.3636 20.666 40ZM25.9753 39.5229C29.0809 38.4731 34.8503 37 40.666 37C46.4132 37 52.1152 38.4386 55.2459 39.4856C55.7027 39.6384 55.6773 40.2838 55.216 40.4225L55.1905 40.4302C52.1664 41.3398 46.6465 43 40.666 43C34.5868 43 28.9834 41.3748 25.9938 40.4265C25.5463 40.2845 25.5306 39.6732 25.9753 39.5229Z" fill="white"/>
</svg>
