<svg width="24" height="25" viewBox="0 0 24 25" fill="none" xmlns="http://www.w3.org/2000/svg">
<g clip-path="url(#clip0_171_280)">
<path d="M12 0.351562C5.37264 0.351562 0 5.7242 0 12.3516C0 17.9791 3.87456 22.7013 9.10128 23.9983V16.0188H6.62688V12.3516H9.10128V10.7714C9.10128 6.68708 10.9498 4.79396 14.9597 4.79396C15.72 4.79396 17.0318 4.94324 17.5685 5.09204V8.41604C17.2853 8.38628 16.7933 8.3714 16.1822 8.3714C14.2147 8.3714 13.4544 9.11684 13.4544 11.0546V12.3516H17.3741L16.7006 16.0188H13.4544V24.2637C19.3963 23.5461 24.0005 18.4869 24.0005 12.3516C24 5.7242 18.6274 0.351562 12 0.351562Z" fill="white"/>
</g>
<defs>
<clipPath id="clip0_171_280">
<rect width="24" height="24" fill="white" transform="translate(0 0.351562)"/>
</clipPath>
</defs>
</svg>
