<svg width="24" height="25" viewBox="0 0 24 25" fill="none" xmlns="http://www.w3.org/2000/svg">
<g clip-path="url(#clip0_171_286)">
<path d="M12 2.5125C15.2063 2.5125 15.5859 2.52656 16.8469 2.58281C18.0188 2.63437 18.6516 2.83125 19.0734 2.99531C19.6313 3.21094 20.0344 3.47344 20.4516 3.89062C20.8734 4.3125 21.1313 4.71094 21.3469 5.26875C21.5109 5.69063 21.7078 6.32812 21.7594 7.49531C21.8156 8.76094 21.8297 9.14062 21.8297 12.3422C21.8297 15.5484 21.8156 15.9281 21.7594 17.1891C21.7078 18.3609 21.5109 18.9938 21.3469 19.4156C21.1313 19.9734 20.8687 20.3766 20.4516 20.7938C20.0297 21.2156 19.6313 21.4734 19.0734 21.6891C18.6516 21.8531 18.0141 22.05 16.8469 22.1016C15.5813 22.1578 15.2016 22.1719 12 22.1719C8.79375 22.1719 8.41406 22.1578 7.15313 22.1016C5.98125 22.05 5.34844 21.8531 4.92656 21.6891C4.36875 21.4734 3.96563 21.2109 3.54844 20.7938C3.12656 20.3719 2.86875 19.9734 2.65313 19.4156C2.48906 18.9938 2.29219 18.3563 2.24063 17.1891C2.18438 15.9234 2.17031 15.5438 2.17031 12.3422C2.17031 9.13594 2.18438 8.75625 2.24063 7.49531C2.29219 6.32344 2.48906 5.69063 2.65313 5.26875C2.86875 4.71094 3.13125 4.30781 3.54844 3.89062C3.97031 3.46875 4.36875 3.21094 4.92656 2.99531C5.34844 2.83125 5.98594 2.63437 7.15313 2.58281C8.41406 2.52656 8.79375 2.5125 12 2.5125ZM12 0.351562C8.74219 0.351562 8.33438 0.365625 7.05469 0.421875C5.77969 0.478125 4.90313 0.684375 4.14375 0.979687C3.35156 1.28906 2.68125 1.69687 2.01563 2.36719C1.34531 3.03281 0.9375 3.70313 0.628125 4.49063C0.332812 5.25469 0.126563 6.12656 0.0703125 7.40156C0.0140625 8.68594 0 9.09375 0 12.3516C0 15.6094 0.0140625 16.0172 0.0703125 17.2969C0.126563 18.5719 0.332812 19.4484 0.628125 20.2078C0.9375 21 1.34531 21.6703 2.01563 22.3359C2.68125 23.0016 3.35156 23.4141 4.13906 23.7188C4.90313 24.0141 5.775 24.2203 7.05 24.2766C8.32969 24.3328 8.7375 24.3469 11.9953 24.3469C15.2531 24.3469 15.6609 24.3328 16.9406 24.2766C18.2156 24.2203 19.0922 24.0141 19.8516 23.7188C20.6391 23.4141 21.3094 23.0016 21.975 22.3359C22.6406 21.6703 23.0531 21 23.3578 20.2125C23.6531 19.4484 23.8594 18.5766 23.9156 17.3016C23.9719 16.0219 23.9859 15.6141 23.9859 12.3563C23.9859 9.09844 23.9719 8.69063 23.9156 7.41094C23.8594 6.13594 23.6531 5.25938 23.3578 4.5C23.0625 3.70312 22.6547 3.03281 21.9844 2.36719C21.3188 1.70156 20.6484 1.28906 19.8609 0.984375C19.0969 0.689062 18.225 0.482813 16.95 0.426563C15.6656 0.365625 15.2578 0.351562 12 0.351562Z" fill="white"/>
<path d="M12 6.1875C8.59688 6.1875 5.83594 8.94844 5.83594 12.3516C5.83594 15.7547 8.59688 18.5156 12 18.5156C15.4031 18.5156 18.1641 15.7547 18.1641 12.3516C18.1641 8.94844 15.4031 6.1875 12 6.1875ZM12 16.35C9.79219 16.35 8.00156 14.5594 8.00156 12.3516C8.00156 10.1438 9.79219 8.35312 12 8.35312C14.2078 8.35312 15.9984 10.1438 15.9984 12.3516C15.9984 14.5594 14.2078 16.35 12 16.35Z" fill="white"/>
<path d="M19.8469 5.94395C19.8469 6.74082 19.2 7.38301 18.4078 7.38301C17.6109 7.38301 16.9688 6.73614 16.9688 5.94395C16.9688 5.14707 17.6156 4.50488 18.4078 4.50488C19.2 4.50488 19.8469 5.15176 19.8469 5.94395Z" fill="white"/>
</g>
<defs>
<clipPath id="clip0_171_286">
<rect width="24" height="24" fill="white" transform="translate(0 0.351562)"/>
</clipPath>
</defs>
</svg>
