<svg width="24" height="25" viewBox="0 0 24 25" fill="none" xmlns="http://www.w3.org/2000/svg">
<g clip-path="url(#clip0_171_291)">
<path d="M17.0725 0.351562H13.0278V16.6994C13.0278 18.6472 11.4722 20.2472 9.53626 20.2472C7.60034 20.2472 6.04469 18.6472 6.04469 16.6994C6.04469 14.7864 7.56577 13.2211 9.43257 13.1516V9.04723C5.31872 9.11676 2 12.4907 2 16.6994C2 20.9429 5.38786 24.3516 9.57085 24.3516C13.7538 24.3516 17.1416 20.9081 17.1416 16.6994V8.31676C18.6627 9.42983 20.5295 10.0907 22.5 10.1255V6.02113C19.4579 5.91678 17.0725 3.41243 17.0725 0.351562Z" fill="white"/>
</g>
<defs>
<clipPath id="clip0_171_291">
<rect width="24" height="24" fill="white" transform="translate(0 0.351562)"/>
</clipPath>
</defs>
</svg>
