<svg width="125" height="116" viewBox="0 0 125 116" fill="none" xmlns="http://www.w3.org/2000/svg">
<path d="M124.323 2.30561C124.492 1.21401 123.744 0.192267 122.652 0.0234813C121.561 -0.145304 120.539 0.602783 120.37 1.69438L124.323 2.30561ZM0.89229 96.5039C-0.0297334 97.1122 -0.284111 98.3527 0.324121 99.2747L10.2358 114.3C10.8441 115.222 12.0846 115.476 13.0066 114.868C13.9286 114.26 14.183 113.019 13.5748 112.097L4.76437 98.7416L18.1201 89.9311C19.0422 89.3229 19.2965 88.0824 18.6883 87.1604C18.0801 86.2383 16.8396 85.984 15.9175 86.5922L0.89229 96.5039ZM120.37 1.69438C117.237 21.9555 103.179 48.8506 82.0423 69.0694C60.934 89.2614 33.0876 102.508 2.39535 96.2142L1.59184 100.133C34.0011 106.778 63.12 92.7057 84.8073 71.9599C106.467 51.2408 121.034 23.5794 124.323 2.30561L120.37 1.69438Z" fill="#654696"/>
</svg>
